<svg width="217" height="144" viewBox="0 0 217 144" fill="none" xmlns="http://www.w3.org/2000/svg">
<g clip-path="url(#clip0_1_3)">
<path d="M216.891 69.3397C216.719 57.8921 213.149 47.9702 205.859 40.3815C202.536 36.8074 199.573 32.7957 197.026 28.4253C196.17 27.0367 195.334 25.632 194.471 24.2595C184.487 8.34744 171.173 0.0967213 154.296 0.0402095C139.064 -0.0243753 123.839 0.0402095 108.607 0.0402095V0.0967272C92.5725 0.0967272 76.5386 -0.0728022 60.5115 0.153245C49.0958 0.314707 39.1123 5.31195 30.4238 13.9986C24.6132 19.8032 20.7828 27.4807 16.2467 34.5043C15.4444 35.7212 14.5246 36.8238 13.5059 37.7901C4.95443 45.9278 0.315542 56.4147 0.0825695 69.372C-0.0955858 80.0124 -0.0270646 90.6608 0.0825695 101.301C0.253873 121.201 12.2999 138.995 28.9232 142.7C35.5629 144.186 42.5452 143.871 49.3631 143.814C60.3265 143.733 70.3991 139.778 79.6495 132.875C88.1392 126.522 94.3952 117.73 99.7193 107.848C104.036 99.7754 112.793 99.9045 117.295 107.848C118.145 109.35 118.974 110.86 119.817 112.361C128.519 127.754 140.485 137.687 155.715 142.159C164.033 144.581 172.516 144.064 180.944 143.919C200.583 143.58 216.651 124.544 216.891 101.333C217.014 90.6205 217.048 79.9801 216.891 69.3397ZM53.118 9.50189C56.3923 8.69727 59.7295 8.3022 63.0742 8.32322C93.3674 8.24249 123.668 8.32322 153.968 8.26671C167.832 8.26671 179.076 14.6364 187.701 27.3758C188.194 28.1023 188.612 28.8854 189.071 29.6281H27.9022C34.1582 19.0766 42.5041 12.2306 53.118 9.50189ZM209.936 100.082C209.874 120.168 196.807 135.604 179.732 135.604C172.393 135.604 165.027 136.169 157.764 134.118C144.895 130.485 134.597 122.428 126.929 109.786C125.524 107.493 124.257 105.079 122.914 102.738C121.355 99.9173 119.223 97.6004 116.71 95.9984C114.198 94.3964 111.385 93.5601 108.528 93.5657C105.672 93.5714 102.861 94.4186 100.353 96.0305C97.8455 97.6424 95.7196 99.9677 94.1691 102.795C89.7906 110.658 85.138 118.134 78.5668 123.736C69.8166 131.172 60.0661 135.337 49.2945 135.539C43.4839 135.652 37.5843 135.911 31.8559 134.974C18.0283 132.706 7.33896 118.021 7.13339 101.56C7.00092 90.747 7.00092 79.937 7.13339 69.1298C7.3184 52.6123 18.6929 38.6377 32.7124 37.6447C36.1933 37.3945 39.7016 37.4994 43.203 37.4994H108.545C132.874 37.4994 157.206 37.4994 181.541 37.4994C195.368 37.4994 206.359 47.6312 209.292 63.0427C209.724 65.4747 209.943 67.9529 209.943 70.4377C209.984 80.3434 209.984 90.233 209.936 100.082Z" fill="white"/>
<path d="M186.467 90.7175H176.257V103.15C176.255 104.342 175.853 105.485 175.137 106.327C174.422 107.17 173.452 107.645 172.441 107.647H166.959C165.947 107.645 164.978 107.17 164.262 106.327C163.547 105.485 163.144 104.342 163.142 103.15V90.7175H152.912C151.898 90.7175 150.925 90.2429 150.208 89.3981C149.491 88.5533 149.089 87.4075 149.089 86.2127V80.6503C149.089 79.4556 149.491 78.3098 150.208 77.465C150.925 76.6202 151.898 76.1455 152.912 76.1455H163.156V63.5919C163.156 62.3886 163.562 61.2345 164.284 60.3837C165.006 59.5328 165.986 59.0548 167.007 59.0548H172.406C173.428 59.0548 174.407 59.5328 175.129 60.3837C175.852 61.2345 176.257 62.3886 176.257 63.5919V76.1133H186.467C187.49 76.1133 188.471 76.5921 189.195 77.4445C189.918 78.2969 190.325 79.453 190.325 80.6584V86.1966C190.319 87.3978 189.91 88.5477 189.188 89.3948C188.465 90.242 187.487 90.7175 186.467 90.7175Z" fill="white"/>
<path d="M26.131 33.6384C26.5854 14.9718 45.6344 7.19399 55.1022 5.63843C127.814 -0.361567 117.589 12.5718 140.312 5.63843C163.034 -1.2949 182.727 15.6384 189.733 24.9718V33.6384H26.131Z" fill="url(#paint0_linear_1_3)" fill-opacity="0.49"/>
<path d="M76.0462 132.663C78.884 132.663 81.1845 129.964 81.1845 126.633C81.1845 123.303 78.884 120.603 76.0462 120.603C73.2085 120.603 70.908 123.303 70.908 126.633C70.908 129.964 73.2085 132.663 76.0462 132.663Z" fill="white"/>
<path d="M122.84 42.511C125.11 42.511 126.95 40.3511 126.95 37.6868C126.95 35.0226 125.11 32.8627 122.84 32.8627C120.569 32.8627 118.729 35.0226 118.729 37.6868C118.729 40.3511 120.569 42.511 122.84 42.511Z" fill="white"/>
<path d="M53.4379 85.6281C55.7081 85.6281 57.5485 83.4683 57.5485 80.804C57.5485 78.1397 55.7081 75.9799 53.4379 75.9799C51.1677 75.9799 49.3273 78.1397 49.3273 80.804C49.3273 83.4683 51.1677 85.6281 53.4379 85.6281Z" fill="white"/>
<path d="M25.6913 85.6281C27.394 85.6281 28.7743 84.0083 28.7743 82.0101C28.7743 80.0118 27.394 78.392 25.6913 78.392C23.9886 78.392 22.6084 80.0118 22.6084 82.0101C22.6084 84.0083 23.9886 85.6281 25.6913 85.6281Z" fill="white"/>
<path d="M7.70744 101.307C9.69389 101.307 11.3042 99.4167 11.3042 97.0854C11.3042 94.7542 9.69389 92.8643 7.70744 92.8643C5.72099 92.8643 4.11066 94.7542 4.11066 97.0854C4.11066 99.4167 5.72099 101.307 7.70744 101.307Z" fill="white"/>
<path d="M123.769 38.1208L87.8642 52.4623L84.8641 78.392L93.5163 109.749L75.5324 126.03" stroke="white" stroke-width="4.23826"/>
<path d="M53.5207 79.598L58.5762 56.6834L69.9631 39.799" stroke="white" stroke-width="4.23826" stroke-miterlimit="10"/>
<path d="M8.42091 97.725L25.6913 101.91L42.7304 99.4975L53.4379 81.407L60.6315 106.131L75.0186 127.236" stroke="white" stroke-width="4.23826" stroke-miterlimit="10"/>
<path d="M70.908 43.4171C73.1782 43.4171 75.0186 41.2573 75.0186 38.593C75.0186 35.9287 73.1782 33.7688 70.908 33.7688C68.6378 33.7688 66.7974 35.9287 66.7974 38.593C66.7974 41.2573 68.6378 43.4171 70.908 43.4171Z" fill="white"/>
<path d="M14.3871 51.8593C16.6574 51.8593 18.4977 49.6995 18.4977 47.0352C18.4977 44.3709 16.6574 42.2111 14.3871 42.2111C12.1169 42.2111 10.2765 44.3709 10.2765 47.0352C10.2765 49.6995 12.1169 51.8593 14.3871 51.8593Z" fill="white"/>
<path d="M85.3779 83.2161C87.6481 83.2161 89.4885 81.0562 89.4885 78.392C89.4885 75.7277 87.6481 73.5678 85.3779 73.5678C83.1077 73.5678 81.2673 75.7277 81.2673 78.392C81.2673 81.0562 83.1077 83.2161 85.3779 83.2161Z" fill="white"/>
<path d="M47.272 119.397C48.9747 119.397 50.355 117.777 50.355 115.779C50.355 113.781 48.9747 112.161 47.272 112.161C45.5693 112.161 44.1891 113.781 44.1891 115.779C44.1891 117.777 45.5693 119.397 47.272 119.397Z" fill="white"/>
<path d="M53.0069 80.201L32.371 68.7437L12.3318 45.8291" stroke="white" stroke-width="4.23826"/>
<path d="M58.5761 56.6834L69.8803 75.9799L85.3779 78.392" stroke="white" stroke-width="4.23826"/>
<path d="M43.2442 99.4975L47.7858 115.779L32.4539 139.9" stroke="white" stroke-width="4.23826"/>
<path d="M32.371 68.1407L25.6913 81.407V100.101" stroke="white" stroke-width="4.23826"/>
<path d="M53.4379 85.6281C55.7081 85.6281 57.5485 83.4683 57.5485 80.804C57.5485 78.1397 55.7081 75.9799 53.4379 75.9799C51.1677 75.9799 49.3273 78.1397 49.3273 80.804C49.3273 83.4683 51.1677 85.6281 53.4379 85.6281Z" fill="white"/>
<path d="M25.6913 85.6281C27.394 85.6281 28.7743 84.0083 28.7743 82.0101C28.7743 80.0118 27.394 78.392 25.6913 78.392C23.9886 78.392 22.6084 80.0118 22.6084 82.0101C22.6084 84.0083 23.9886 85.6281 25.6913 85.6281Z" fill="white"/>
<path d="M7.70744 101.307C9.69389 101.307 11.3042 99.4167 11.3042 97.0854C11.3042 94.7542 9.69389 92.8643 7.70744 92.8643C5.72099 92.8643 4.11066 94.7542 4.11066 97.0854C4.11066 99.4167 5.72099 101.307 7.70744 101.307Z" fill="white"/>
<path d="M123.769 38.1208L87.8642 52.4623L84.8641 78.392L93.5163 109.749L75.5324 126.03" stroke="white" stroke-width="4.23826"/>
<path d="M53.5207 79.598L58.5762 56.6834L69.9631 39.799" stroke="white" stroke-width="4.23826" stroke-miterlimit="10"/>
<path d="M8.42091 97.725L25.6913 101.91L42.7304 99.4975L53.4379 81.407L60.6315 106.131L75.0186 127.236" stroke="white" stroke-width="4.23826" stroke-miterlimit="10"/>
<path d="M70.908 43.4171C73.1782 43.4171 75.0186 41.2573 75.0186 38.593C75.0186 35.9287 73.1782 33.7688 70.908 33.7688C68.6378 33.7688 66.7974 35.9287 66.7974 38.593C66.7974 41.2573 68.6378 43.4171 70.908 43.4171Z" fill="white"/>
<path d="M14.3871 51.8593C16.6574 51.8593 18.4977 49.6995 18.4977 47.0352C18.4977 44.3709 16.6574 42.2111 14.3871 42.2111C12.1169 42.2111 10.2765 44.3709 10.2765 47.0352C10.2765 49.6995 12.1169 51.8593 14.3871 51.8593Z" fill="white"/>
<path d="M85.3779 83.2161C87.6481 83.2161 89.4885 81.0562 89.4885 78.392C89.4885 75.7277 87.6481 73.5678 85.3779 73.5678C83.1077 73.5678 81.2673 75.7277 81.2673 78.392C81.2673 81.0562 83.1077 83.2161 85.3779 83.2161Z" fill="white"/>
<path d="M47.272 119.397C48.9747 119.397 50.355 117.777 50.355 115.779C50.355 113.781 48.9747 112.161 47.272 112.161C45.5693 112.161 44.1891 113.781 44.1891 115.779C44.1891 117.777 45.5693 119.397 47.272 119.397Z" fill="white"/>
<path d="M53.0069 80.201L32.371 68.7437L12.3318 45.8291" stroke="white" stroke-width="4.23826"/>
<path d="M58.5761 56.6834L69.8803 75.9799L85.3779 78.392" stroke="white" stroke-width="4.23826"/>
<path d="M43.2442 99.4975L47.7858 115.779L32.4539 139.9" stroke="white" stroke-width="4.23826"/>
<path d="M32.371 68.1407L25.6913 81.407V100.101" stroke="white" stroke-width="4.23826"/>
</g>
<defs>
<linearGradient id="paint0_linear_1_3" x1="37.4922" y1="18.9718" x2="179.508" y2="18.9718" gradientUnits="userSpaceOnUse">
<stop stop-color="white" stop-opacity="0.64"/>
<stop offset="1" stop-color="white" stop-opacity="0"/>
</linearGradient>
<clipPath id="clip0_1_3">
<rect width="217" height="144" fill="white"/>
</clipPath>
</defs>
</svg>
